<?xml version="1.0" standalone="no"?>
<!DOCTYPE svg PUBLIC "-//W3C//DTD SVG 20010904//EN"
 "http://www.w3.org/TR/2001/REC-SVG-20010904/DTD/svg10.dtd">
<svg


 version="1.0" xmlns="http://www.w3.org/2000/svg"
 width="512.000000pt" height="512.000000pt" viewBox="0 0 512.000000 512.000000"
 preserveAspectRatio="xMidYMid meet">
<metadata>
Created by potrace 1.16, written by Peter Selinger 2001-2019
</metadata>
<g transform="translate(0.000000,512.000000) scale(0.100000,-0.100000)"
fill="#000000" stroke="none">
<path fill="#7215e3" d="M587 4484 c-56 -44 -120 -136 -144 -208 -17 -48 -18 -161 -21 -1796
-2 -1206 1 -1765 8 -1810 31 -186 173 -330 356 -360 80 -13 3468 -13 3548 0
179 29 322 169 356 349 14 74 14 3488 0 3562 -16 84 -63 174 -120 229 -62 61
-112 91 -64 39 18 -19 42 -54 55 -79 l24 -45 0 -1800 0 -1800 -27 -52 c-37
-70 -89 -120 -157 -152 l-56 -26 -1785 0 -1785 0 -68 33 c-48 24 -79 48 -107
83 -76 97 -71 -63 -68 1929 l3 1785 24 45 c13 25 37 60 54 78 40 42 31 41 -26
-4z"/>
<path fill="#7215e3" d="M3000 3579 l0 -69 140 0 140 0 0 -955 0 -955 -715 0 -715 0 0 955 0
955 140 0 140 0 0 65 0 65 -181 0 c-182 0 -210 -5 -236 -39 -10 -12 -12 -252
-13 -1047 l0 -1031 26 -26 c16 -16 42 -28 67 -32 23 -3 390 -5 814 -3 l773 3
27 28 28 27 3 1018 c2 732 -1 1025 -9 1044 -21 50 -40 55 -241 60 l-188 5 0
-68z"/>
<path fill="#7215e3" d="M1957 3163 c-4 -3 -7 -35 -7 -70 l0 -63 70 0 70 0 0 70 0 70 -63 0
c-35 0 -67 -3 -70 -7z"/>
<path fill="#7215e3" d="M1952 2723 l3 -68 68 -3 67 -3 0 71 0 70 -70 0 -71 0 3 -67z"/>
<path fill="#7215e3" d="M1952 2353 l3 -68 68 -3 67 -3 0 71 0 70 -70 0 -71 0 3 -67z"/>
<path fill="#7215e3" d="M1957 2043 c-4 -3 -7 -35 -7 -70 l0 -63 70 0 70 0 0 70 0 70 -63 0
c-35 0 -67 -3 -70 -7z"/>
</g>
</svg>
